<?xml version="1.0" standalone="no"?>
<svg xmlns="http://www.w3.org/2000/svg" width="500" height="500"><defs><clipPath id="clip-path-dot-color"><path d="M 19 159v 14h 7a 7 7, 0, 0, 0, 0 -14" transform="rotate(180,26,166)"/><path d="M 19 201v 14h 7a 7 7, 0, 0, 0, 0 -14" transform="rotate(-90,26,208)"/><rect x="19" y="215" width="14" height="14" transform="rotate(0,26,222)"/><rect x="19" y="229" width="14" height="14" transform="rotate(0,26,236)"/><path d="M 19 243v 14h 14v -7a 7 7, 0, 0, 0, -7 -7" transform="rotate(180,26,250)"/><path d="M 19 285v 14h 7a 7 7, 0, 0, 0, 0 -14" transform="rotate(-90,26,292)"/><rect x="19" y="299" width="14" height="14" transform="rotate(0,26,306)"/><path d="M 19 313v 14h 7a 7 7, 0, 0, 0, 0 -14" transform="rotate(90,26,320)"/><path d="M 19 341v 14h 7a 7 7, 0, 0, 0, 0 -14" transform="rotate(180,26,348)"/><path d="M 33 131v 14h 14v -7a 7 7, 0, 0, 0, -7 -7" transform="rotate(-90,40,138)"/><rect x="33" y="145" width="14" height="14" transform="rotate(0,40,152)"/><rect x="33" y="159" width="14" height="14" transform="rotate(0,40,166)"/><path d="M 33 229v 14h 14v -7a 7 7, 0, 0, 0, -7 -7" transform="rotate(0,40,236)"/><rect x="33" y="243" width="14" height="14" transform="rotate(0,40,250)"/><path d="M 33 257v 14h 7a 7 7, 0, 0, 0, 0 -14" transform="rotate(90,40,264)"/><path d="M 33 341v 14h 14v -7a 7 7, 0, 0, 0, -7 -7" transform="rotate(0,40,348)"/><path d="M 33 355v 14h 14v -7a 7 7, 0, 0, 0, -7 -7" transform="rotate(180,40,362)"/><path d="M 47 131v 14h 7a 7 7, 0, 0, 0, 0 -14" transform="rotate(0,54,138)"/><rect x="47" y="159" width="14" height="14" transform="rotate(0,54,166)"/><circle cx="54" cy="194" r="7" transform="rotate(0,54,194)"/><path d="M 47 215v 14h 7a 7 7, 0, 0, 0, 0 -14" transform="rotate(180,54,222)"/><rect x="47" y="243" width="14" height="14" transform="rotate(0,54,250)"/><path d="M 47 271v 14h 14v -7a 7 7, 0, 0, 0, -7 -7" transform="rotate(-90,54,278)"/><path d="M 47 285v 14h 7a 7 7, 0, 0, 0, 0 -14" transform="rotate(90,54,292)"/><rect x="47" y="355" width="14" height="14" transform="rotate(0,54,362)"/><path d="M 61 145v 14h 7a 7 7, 0, 0, 0, 0 -14" transform="rotate(-90,68,152)"/><rect x="61" y="159" width="14" height="14" transform="rotate(0,68,166)"/><path d="M 61 201v 14h 7a 7 7, 0, 0, 0, 0 -14" transform="rotate(-90,68,208)"/><rect x="61" y="215" width="14" height="14" transform="rotate(0,68,222)"/><rect x="61" y="229" width="14" height="14" transform="rotate(0,68,236)"/><path d="M 61 243v 14h 14v -7a 7 7, 0, 0, 0, -7 -7" transform="rotate(90,68,250)"/><rect x="61" y="271" width="14" height="14" transform="rotate(0,68,278)"/><path d="M 61 327v 14h 7a 7 7, 0, 0, 0, 0 -14" transform="rotate(180,68,334)"/><rect x="61" y="355" width="14" height="14" transform="rotate(0,68,362)"/><path d="M 75 159v 14h 14v -7a 7 7, 0, 0, 0, -7 -7" transform="rotate(0,82,166)"/><rect x="75" y="173" width="14" height="14" transform="rotate(0,82,180)"/><path d="M 75 187v 14h 14v -7a 7 7, 0, 0, 0, -7 -7" transform="rotate(180,82,194)"/><path d="M 75 257v 14h 7a 7 7, 0, 0, 0, 0 -14" transform="rotate(-90,82,264)"/><path d="M 75 271v 14h 14v -7a 7 7, 0, 0, 0, -7 -7" transform="rotate(90,82,278)"/><rect x="75" y="327" width="14" height="14" transform="rotate(0,82,334)"/><rect x="75" y="355" width="14" height="14" transform="rotate(0,82,362)"/><circle cx="96" cy="152" r="7" transform="rotate(0,96,152)"/><rect x="89" y="187" width="14" height="14" transform="rotate(0,96,194)"/><path d="M 89 201v 14h 7a 7 7, 0, 0, 0, 0 -14" transform="rotate(90,96,208)"/><path d="M 89 229v 14h 7a 7 7, 0, 0, 0, 0 -14" transform="rotate(-90,96,236)"/><path d="M 89 243v 14h 14v -7a 7 7, 0, 0, 0, -7 -7" transform="rotate(180,96,250)"/><path d="M 89 313v 14h 7a 7 7, 0, 0, 0, 0 -14" transform="rotate(-90,96,320)"/><rect x="89" y="327" width="14" height="14" transform="rotate(0,96,334)"/><rect x="89" y="355" width="14" height="14" transform="rotate(0,96,362)"/><circle cx="110" cy="138" r="7" transform="rotate(0,110,138)"/><circle cx="110" cy="166" r="7" transform="rotate(0,110,166)"/><path d="M 103 187v 14h 7a 7 7, 0, 0, 0, 0 -14" transform="rotate(0,110,194)"/><circle cx="110" cy="222" r="7" transform="rotate(0,110,222)"/><path d="M 103 243v 14h 7a 7 7, 0, 0, 0, 0 -14" transform="rotate(0,110,250)"/><circle cx="110" cy="278" r="7" transform="rotate(0,110,278)"/><circle cx="110" cy="306" r="7" transform="rotate(0,110,306)"/><path d="M 103 327v 14h 7a 7 7, 0, 0, 0, 0 -14" transform="rotate(0,110,334)"/><path d="M 103 355v 14h 7a 7 7, 0, 0, 0, 0 -14" transform="rotate(0,110,362)"/><path d="M 117 145v 14h 7a 7 7, 0, 0, 0, 0 -14" transform="rotate(180,124,152)"/><circle cx="124" cy="236" r="7" transform="rotate(0,124,236)"/><path d="M 117 257v 14h 7a 7 7, 0, 0, 0, 0 -14" transform="rotate(180,124,264)"/><circle cx="124" cy="292" r="7" transform="rotate(0,124,292)"/><path d="M 131 33v 14h 14v -7a 7 7, 0, 0, 0, -7 -7" transform="rotate(-90,138,40)"/><rect x="131" y="47" width="14" height="14" transform="rotate(0,138,54)"/><path d="M 131 61v 14h 7a 7 7, 0, 0, 0, 0 -14" transform="rotate(90,138,68)"/><path d="M 131 89v 14h 7a 7 7, 0, 0, 0, 0 -14" transform="rotate(-90,138,96)"/><path d="M 131 103v 14h 7a 7 7, 0, 0, 0, 0 -14" transform="rotate(90,138,110)"/><path d="M 131 145v 14h 14v -7a 7 7, 0, 0, 0, -7 -7" transform="rotate(0,138,152)"/><path d="M 131 159v 14h 14v -7a 7 7, 0, 0, 0, -7 -7" transform="rotate(180,138,166)"/><circle cx="138" cy="208" r="7" transform="rotate(0,138,208)"/><path d="M 131 243v 14h 7a 7 7, 0, 0, 0, 0 -14" transform="rotate(-90,138,250)"/><rect x="131" y="257" width="14" height="14" transform="rotate(0,138,264)"/><path d="M 131 271v 14h 14v -7a 7 7, 0, 0, 0, -7 -7" transform="rotate(180,138,278)"/><path d="M 131 313v 14h 14v -7a 7 7, 0, 0, 0, -7 -7" transform="rotate(-90,138,320)"/><path d="M 131 327v 14h 7a 7 7, 0, 0, 0, 0 -14" transform="rotate(90,138,334)"/><circle cx="138" cy="362" r="7" transform="rotate(0,138,362)"/><path d="M 131 439v 14h 14v -7a 7 7, 0, 0, 0, -7 -7" transform="rotate(-90,138,446)"/><path d="M 131 453v 14h 7a 7 7, 0, 0, 0, 0 -14" transform="rotate(90,138,460)"/><rect x="145" y="33" width="14" height="14" transform="rotate(0,152,40)"/><circle cx="152" cy="82" r="7" transform="rotate(0,152,82)"/><path d="M 145 159v 14h 14v -7a 7 7, 0, 0, 0, -7 -7" transform="rotate(0,152,166)"/><rect x="145" y="173" width="14" height="14" transform="rotate(0,152,180)"/><path d="M 145 187v 14h 14v -7a 7 7, 0, 0, 0, -7 -7" transform="rotate(180,152,194)"/><path d="M 145 229v 14h 7a 7 7, 0, 0, 0, 0 -14" transform="rotate(180,152,236)"/><path d="M 145 257v 14h 14v -7a 7 7, 0, 0, 0, -7 -7" transform="rotate(0,152,264)"/><rect x="145" y="271" width="14" height="14" transform="rotate(0,152,278)"/><rect x="145" y="285" width="14" height="14" transform="rotate(0,152,292)"/><rect x="145" y="299" width="14" height="14" transform="rotate(0,152,306)"/><path d="M 145 313v 14h 14v -7a 7 7, 0, 0, 0, -7 -7" transform="rotate(90,152,320)"/><path d="M 145 341v 14h 7a 7 7, 0, 0, 0, 0 -14" transform="rotate(180,152,348)"/><path d="M 145 383v 14h 14v -7a 7 7, 0, 0, 0, -7 -7" transform="rotate(-90,152,390)"/><path d="M 145 397v 14h 14v -7a 7 7, 0, 0, 0, -7 -7" transform="rotate(180,152,404)"/><path d="M 145 425v 14h 14v -7a 7 7, 0, 0, 0, -7 -7" transform="rotate(-90,152,432)"/><path d="M 145 439v 14h 14v -7a 7 7, 0, 0, 0, -7 -7" transform="rotate(90,152,446)"/><path d="M 145 467v 14h 7a 7 7, 0, 0, 0, 0 -14" transform="rotate(180,152,474)"/><path d="M 159 19v 14h 14v -7a 7 7, 0, 0, 0, -7 -7" transform="rotate(-90,166,26)"/><path d="M 159 33v 14h 14v -7a 7 7, 0, 0, 0, -7 -7" transform="rotate(90,166,40)"/><circle cx="166" cy="110" r="7" transform="rotate(0,166,110)"/><path d="M 159 131v 14h 14v -7a 7 7, 0, 0, 0, -7 -7" transform="rotate(-90,166,138)"/><path d="M 159 145v 14h 14v -7a 7 7, 0, 0, 0, -7 -7" transform="rotate(180,166,152)"/><rect x="159" y="173" width="14" height="14" transform="rotate(0,166,180)"/><rect x="159" y="187" width="14" height="14" transform="rotate(0,166,194)"/><rect x="159" y="201" width="14" height="14" transform="rotate(0,166,208)"/><rect x="159" y="215" width="14" height="14" transform="rotate(0,166,222)"/><rect x="159" y="229" width="14" height="14" transform="rotate(0,166,236)"/><path d="M 159 243v 14h 14v -7a 7 7, 0, 0, 0, -7 -7" transform="rotate(180,166,250)"/><path d="M 159 271v 14h 7a 7 7, 0, 0, 0, 0 -14" transform="rotate(0,166,278)"/><path d="M 159 299v 14h 7a 7 7, 0, 0, 0, 0 -14" transform="rotate(0,166,306)"/><path d="M 159 341v 14h 7a 7 7, 0, 0, 0, 0 -14" transform="rotate(0,166,348)"/><path d="M 159 383v 14h 14v -7a 7 7, 0, 0, 0, -7 -7" transform="rotate(0,166,390)"/><rect x="159" y="397" width="14" height="14" transform="rotate(0,166,404)"/><rect x="159" y="411" width="14" height="14" transform="rotate(0,166,418)"/><rect x="159" y="425" width="14" height="14" transform="rotate(0,166,432)"/><path d="M 159 453v 14h 14v -7a 7 7, 0, 0, 0, -7 -7" transform="rotate(-90,166,460)"/><rect x="159" y="467" width="14" height="14" transform="rotate(0,166,474)"/><path d="M 173 19v 14h 7a 7 7, 0, 0, 0, 0 -14" transform="rotate(0,180,26)"/><path d="M 173 47v 14h 14v -7a 7 7, 0, 0, 0, -7 -7" transform="rotate(-90,180,54)"/><path d="M 173 61v 14h 7a 7 7, 0, 0, 0, 0 -14" transform="rotate(90,180,68)"/><path d="M 173 89v 14h 7a 7 7, 0, 0, 0, 0 -14" transform="rotate(180,180,96)"/><path d="M 173 117v 14h 7a 7 7, 0, 0, 0, 0 -14" transform="rotate(-90,180,124)"/><rect x="173" y="131" width="14" height="14" transform="rotate(0,180,138)"/><rect x="173" y="145" width="14" height="14" transform="rotate(0,180,152)"/><rect x="173" y="173" width="14" height="14" transform="rotate(0,180,180)"/><rect x="173" y="243" width="14" height="14" transform="rotate(0,180,250)"/><path d="M 173 257v 14h 7a 7 7, 0, 0, 0, 0 -14" transform="rotate(90,180,264)"/><circle cx="180" cy="292" r="7" transform="rotate(0,180,292)"/><path d="M 173 327v 14h 7a 7 7, 0, 0, 0, 0 -14" transform="rotate(180,180,334)"/><path d="M 173 397v 14h 7a 7 7, 0, 0, 0, 0 -14" transform="rotate(0,180,404)"/><rect x="173" y="425" width="14" height="14" transform="rotate(0,180,432)"/><path d="M 173 453v 14h 14v -7a 7 7, 0, 0, 0, -7 -7" transform="rotate(0,180,460)"/><path d="M 173 467v 14h 14v -7a 7 7, 0, 0, 0, -7 -7" transform="rotate(90,180,474)"/><path d="M 187 33v 14h 14v -7a 7 7, 0, 0, 0, -7 -7" transform="rotate(-90,194,40)"/><rect x="187" y="47" width="14" height="14" transform="rotate(0,194,54)"/><path d="M 187 75v 14h 14v -7a 7 7, 0, 0, 0, -7 -7" transform="rotate(-90,194,82)"/><rect x="187" y="89" width="14" height="14" transform="rotate(0,194,96)"/><path d="M 187 103v 14h 7a 7 7, 0, 0, 0, 0 -14" transform="rotate(90,194,110)"/><rect x="187" y="131" width="14" height="14" transform="rotate(0,194,138)"/><rect x="187" y="145" width="14" height="14" transform="rotate(0,194,152)"/><rect x="187" y="159" width="14" height="14" transform="rotate(0,194,166)"/><path d="M 187 173v 14h 14v -7a 7 7, 0, 0, 0, -7 -7" transform="rotate(90,194,180)"/><path d="M 187 215v 14h 7a 7 7, 0, 0, 0, 0 -14" transform="rotate(180,194,222)"/><rect x="187" y="243" width="14" height="14" transform="rotate(0,194,250)"/><rect x="187" y="327" width="14" height="14" transform="rotate(0,194,334)"/><rect x="187" y="341" width="14" height="14" transform="rotate(0,194,348)"/><path d="M 187 355v 14h 14v -7a 7 7, 0, 0, 0, -7 -7" transform="rotate(180,194,362)"/><path d="M 187 411v 14h 7a 7 7, 0, 0, 0, 0 -14" transform="rotate(-90,194,418)"/><path d="M 187 425v 14h 14v -7a 7 7, 0, 0, 0, -7 -7" transform="rotate(90,194,432)"/><rect x="201" y="33" width="14" height="14" transform="rotate(0,208,40)"/><path d="M 201 47v 14h 14v -7a 7 7, 0, 0, 0, -7 -7" transform="rotate(90,208,54)"/><path d="M 201 75v 14h 14v -7a 7 7, 0, 0, 0, -7 -7" transform="rotate(0,208,82)"/><path d="M 201 89v 14h 14v -7a 7 7, 0, 0, 0, -7 -7" transform="rotate(90,208,96)"/><path d="M 201 117v 14h 14v -7a 7 7, 0, 0, 0, -7 -7" transform="rotate(-90,208,124)"/><rect x="201" y="131" width="14" height="14" transform="rotate(0,208,138)"/><path d="M 201 159v 14h 7a 7 7, 0, 0, 0, 0 -14" transform="rotate(0,208,166)"/><path d="M 201 201v 14h 7a 7 7, 0, 0, 0, 0 -14" transform="rotate(-90,208,208)"/><rect x="201" y="215" width="14" height="14" transform="rotate(0,208,222)"/><rect x="201" y="229" width="14" height="14" transform="rotate(0,208,236)"/><path d="M 201 243v 14h 14v -7a 7 7, 0, 0, 0, -7 -7" transform="rotate(90,208,250)"/><path d="M 201 299v 14h 14v -7a 7 7, 0, 0, 0, -7 -7" transform="rotate(-90,208,306)"/><rect x="201" y="313" width="14" height="14" transform="rotate(0,208,320)"/><path d="M 201 327v 14h 14v -7a 7 7, 0, 0, 0, -7 -7" transform="rotate(90,208,334)"/><rect x="201" y="355" width="14" height="14" transform="rotate(0,208,362)"/><path d="M 201 369v 14h 7a 7 7, 0, 0, 0, 0 -14" transform="rotate(90,208,376)"/><path d="M 201 439v 14h 14v -7a 7 7, 0, 0, 0, -7 -7" transform="rotate(-90,208,446)"/><path d="M 201 453v 14h 7a 7 7, 0, 0, 0, 0 -14" transform="rotate(90,208,460)"/><path d="M 215 19v 14h 14v -7a 7 7, 0, 0, 0, -7 -7" transform="rotate(-90,222,26)"/><path d="M 215 33v 14h 14v -7a 7 7, 0, 0, 0, -7 -7" transform="rotate(90,222,40)"/><path d="M 215 103v 14h 7a 7 7, 0, 0, 0, 0 -14" transform="rotate(-90,222,110)"/><rect x="215" y="117" width="14" height="14" transform="rotate(0,222,124)"/><rect x="215" y="131" width="14" height="14" transform="rotate(0,222,138)"/><path d="M 215 187v 14h 7a 7 7, 0, 0, 0, 0 -14" transform="rotate(180,222,194)"/><path d="M 215 215v 14h 14v -7a 7 7, 0, 0, 0, -7 -7" transform="rotate(0,222,222)"/><path d="M 215 229v 14h 14v -7a 7 7, 0, 0, 0, -7 -7" transform="rotate(90,222,236)"/><circle cx="222" cy="264" r="7" transform="rotate(0,222,264)"/><path d="M 215 285v 14h 7a 7 7, 0, 0, 0, 0 -14" transform="rotate(-90,222,292)"/><rect x="215" y="299" width="14" height="14" transform="rotate(0,222,306)"/><rect x="215" y="313" width="14" height="14" transform="rotate(0,222,320)"/><rect x="215" y="355" width="14" height="14" transform="rotate(0,222,362)"/><path d="M 215 383v 14h 14v -7a 7 7, 0, 0, 0, -7 -7" transform="rotate(-90,222,390)"/><rect x="215" y="397" width="14" height="14" transform="rotate(0,222,404)"/><rect x="215" y="411" width="14" height="14" transform="rotate(0,222,418)"/><rect x="215" y="425" width="14" height="14" transform="rotate(0,222,432)"/><rect x="215" y="439" width="14" height="14" transform="rotate(0,222,446)"/><rect x="229" y="19" width="14" height="14" transform="rotate(0,236,26)"/><path d="M 229 47v 14h 14v -7a 7 7, 0, 0, 0, -7 -7" transform="rotate(-90,236,54)"/><path d="M 229 61v 14h 7a 7 7, 0, 0, 0, 0 -14" transform="rotate(90,236,68)"/><path d="M 229 89v 14h 7a 7 7, 0, 0, 0, 0 -14" transform="rotate(180,236,96)"/><rect x="229" y="131" width="14" height="14" transform="rotate(0,236,138)"/><rect x="229" y="145" width="14" height="14" transform="rotate(0,236,152)"/><rect x="229" y="159" width="14" height="14" transform="rotate(0,236,166)"/><rect x="229" y="173" width="14" height="14" transform="rotate(0,236,180)"/><path d="M 229 187v 14h 14v -7a 7 7, 0, 0, 0, -7 -7" transform="rotate(90,236,194)"/><circle cx="236" cy="250" r="7" transform="rotate(0,236,250)"/><circle cx="236" cy="278" r="7" transform="rotate(0,236,278)"/><path d="M 229 299v 14h 14v -7a 7 7, 0, 0, 0, -7 -7" transform="rotate(0,236,306)"/><rect x="229" y="313" width="14" height="14" transform="rotate(0,236,320)"/><path d="M 229 341v 14h 14v -7a 7 7, 0, 0, 0, -7 -7" transform="rotate(-90,236,348)"/><rect x="229" y="355" width="14" height="14" transform="rotate(0,236,362)"/><rect x="229" y="369" width="14" height="14" transform="rotate(0,236,376)"/><rect x="229" y="383" width="14" height="14" transform="rotate(0,236,390)"/><path d="M 229 425v 14h 14v -7a 7 7, 0, 0, 0, -7 -7" transform="rotate(0,236,432)"/><rect x="229" y="439" width="14" height="14" transform="rotate(0,236,446)"/><rect x="243" y="19" width="14" height="14" transform="rotate(0,250,26)"/><path d="M 243 47v 14h 7a 7 7, 0, 0, 0, 0 -14" transform="rotate(0,250,54)"/><path d="M 243 89v 14h 14v -7a 7 7, 0, 0, 0, -7 -7" transform="rotate(0,250,96)"/><rect x="243" y="103" width="14" height="14" transform="rotate(0,250,110)"/><rect x="243" y="117" width="14" height="14" transform="rotate(0,250,124)"/><rect x="243" y="131" width="14" height="14" transform="rotate(0,250,138)"/><rect x="243" y="159" width="14" height="14" transform="rotate(0,250,166)"/><circle cx="250" cy="208" r="7" transform="rotate(0,250,208)"/><circle cx="250" cy="236" r="7" transform="rotate(0,250,236)"/><path d="M 243 257v 14h 7a 7 7, 0, 0, 0, 0 -14" transform="rotate(180,250,264)"/><path d="M 243 313v 14h 14v -7a 7 7, 0, 0, 0, -7 -7" transform="rotate(0,250,320)"/><rect x="243" y="327" width="14" height="14" transform="rotate(0,250,334)"/><rect x="243" y="341" width="14" height="14" transform="rotate(0,250,348)"/><rect x="243" y="369" width="14" height="14" transform="rotate(0,250,376)"/><rect x="243" y="383" width="14" height="14" transform="rotate(0,250,390)"/><path d="M 243 411v 14h 7a 7 7, 0, 0, 0, 0 -14" transform="rotate(180,250,418)"/><path d="M 243 439v 14h 7a 7 7, 0, 0, 0, 0 -14" transform="rotate(0,250,446)"/><rect x="257" y="19" width="14" height="14" transform="rotate(0,264,26)"/><path d="M 257 61v 14h 14v -7a 7 7, 0, 0, 0, -7 -7" transform="rotate(-90,264,68)"/><path d="M 257 75v 14h 14v -7a 7 7, 0, 0, 0, -7 -7" transform="rotate(180,264,82)"/><path d="M 257 117v 14h 14v -7a 7 7, 0, 0, 0, -7 -7" transform="rotate(0,264,124)"/><rect x="257" y="131" width="14" height="14" transform="rotate(0,264,138)"/><rect x="257" y="145" width="14" height="14" transform="rotate(0,264,152)"/><rect x="257" y="159" width="14" height="14" transform="rotate(0,264,166)"/><rect x="257" y="173" width="14" height="14" transform="rotate(0,264,180)"/><path d="M 257 187v 14h 14v -7a 7 7, 0, 0, 0, -7 -7" transform="rotate(180,264,194)"/><path d="M 257 215v 14h 7a 7 7, 0, 0, 0, 0 -14" transform="rotate(180,264,222)"/><rect x="257" y="257" width="14" height="14" transform="rotate(0,264,264)"/><path d="M 257 271v 14h 14v -7a 7 7, 0, 0, 0, -7 -7" transform="rotate(180,264,278)"/><path d="M 257 299v 14h 7a 7 7, 0, 0, 0, 0 -14" transform="rotate(180,264,306)"/><path d="M 257 327v 14h 14v -7a 7 7, 0, 0, 0, -7 -7" transform="rotate(0,264,334)"/><rect x="257" y="341" width="14" height="14" transform="rotate(0,264,348)"/><rect x="257" y="355" width="14" height="14" transform="rotate(0,264,362)"/><rect x="257" y="369" width="14" height="14" transform="rotate(0,264,376)"/><path d="M 257 383v 14h 14v -7a 7 7, 0, 0, 0, -7 -7" transform="rotate(90,264,390)"/><rect x="257" y="411" width="14" height="14" transform="rotate(0,264,418)"/><path d="M 257 425v 14h 7a 7 7, 0, 0, 0, 0 -14" transform="rotate(90,264,432)"/><path d="M 257 453v 14h 14v -7a 7 7, 0, 0, 0, -7 -7" transform="rotate(-90,264,460)"/><path d="M 257 467v 14h 7a 7 7, 0, 0, 0, 0 -14" transform="rotate(90,264,474)"/><rect x="271" y="19" width="14" height="14" transform="rotate(0,278,26)"/><rect x="271" y="33" width="14" height="14" transform="rotate(0,278,40)"/><rect x="271" y="47" width="14" height="14" transform="rotate(0,278,54)"/><rect x="271" y="61" width="14" height="14" transform="rotate(0,278,68)"/><rect x="271" y="75" width="14" height="14" transform="rotate(0,278,82)"/><rect x="271" y="89" width="14" height="14" transform="rotate(0,278,96)"/><path d="M 271 103v 14h 7a 7 7, 0, 0, 0, 0 -14" transform="rotate(90,278,110)"/><rect x="271" y="145" width="14" height="14" transform="rotate(0,278,152)"/><path d="M 271 159v 14h 14v -7a 7 7, 0, 0, 0, -7 -7" transform="rotate(90,278,166)"/><path d="M 271 187v 14h 14v -7a 7 7, 0, 0, 0, -7 -7" transform="rotate(0,278,194)"/><rect x="271" y="201" width="14" height="14" transform="rotate(0,278,208)"/><rect x="271" y="215" width="14" height="14" transform="rotate(0,278,222)"/><rect x="271" y="229" width="14" height="14" transform="rotate(0,278,236)"/><rect x="271" y="243" width="14" height="14" transform="rotate(0,278,250)"/><rect x="271" y="257" width="14" height="14" transform="rotate(0,278,264)"/><path d="M 271 271v 14h 14v -7a 7 7, 0, 0, 0, -7 -7" transform="rotate(90,278,278)"/><path d="M 271 299v 14h 7a 7 7, 0, 0, 0, 0 -14" transform="rotate(0,278,306)"/><rect x="271" y="355" width="14" height="14" transform="rotate(0,278,362)"/><path d="M 271 397v 14h 7a 7 7, 0, 0, 0, 0 -14" transform="rotate(-90,278,404)"/><rect x="271" y="411" width="14" height="14" transform="rotate(0,278,418)"/><path d="M 271 439v 14h 7a 7 7, 0, 0, 0, 0 -14" transform="rotate(-90,278,446)"/><path d="M 271 453v 14h 14v -7a 7 7, 0, 0, 0, -7 -7" transform="rotate(90,278,460)"/><rect x="285" y="19" width="14" height="14" transform="rotate(0,292,26)"/><rect x="285" y="47" width="14" height="14" transform="rotate(0,292,54)"/><rect x="285" y="61" width="14" height="14" transform="rotate(0,292,68)"/><path d="M 285 75v 14h 14v -7a 7 7, 0, 0, 0, -7 -7" transform="rotate(90,292,82)"/><circle cx="292" cy="124" r="7" transform="rotate(0,292,124)"/><rect x="285" y="145" width="14" height="14" transform="rotate(0,292,152)"/><path d="M 285 229v 14h 7a 7 7, 0, 0, 0, 0 -14" transform="rotate(0,292,236)"/><path d="M 285 257v 14h 7a 7 7, 0, 0, 0, 0 -14" transform="rotate(0,292,264)"/><circle cx="292" cy="292" r="7" transform="rotate(0,292,292)"/><path d="M 285 327v 14h 7a 7 7, 0, 0, 0, 0 -14" transform="rotate(-90,292,334)"/><rect x="285" y="341" width="14" height="14" transform="rotate(0,292,348)"/><rect x="285" y="355" width="14" height="14" transform="rotate(0,292,362)"/><rect x="285" y="369" width="14" height="14" transform="rotate(0,292,376)"/><path d="M 285 383v 14h 7a 7 7, 0, 0, 0, 0 -14" transform="rotate(90,292,390)"/><path d="M 285 411v 14h 7a 7 7, 0, 0, 0, 0 -14" transform="rotate(0,292,418)"/><rect x="299" y="19" width="14" height="14" transform="rotate(0,306,26)"/><path d="M 299 47v 14h 14v -7a 7 7, 0, 0, 0, -7 -7" transform="rotate(0,306,54)"/><rect x="299" y="61" width="14" height="14" transform="rotate(0,306,68)"/><path d="M 299 89v 14h 14v -7a 7 7, 0, 0, 0, -7 -7" transform="rotate(-90,306,96)"/><path d="M 299 103v 14h 7a 7 7, 0, 0, 0, 0 -14" transform="rotate(90,306,110)"/><path d="M 299 131v 14h 14v -7a 7 7, 0, 0, 0, -7 -7" transform="rotate(-90,306,138)"/><rect x="299" y="145" width="14" height="14" transform="rotate(0,306,152)"/><path d="M 299 187v 14h 7a 7 7, 0, 0, 0, 0 -14" transform="rotate(180,306,194)"/><path d="M 299 271v 14h 7a 7 7, 0, 0, 0, 0 -14" transform="rotate(180,306,278)"/><path d="M 299 313v 14h 7a 7 7, 0, 0, 0, 0 -14" transform="rotate(180,306,320)"/><path d="M 299 355v 14h 14v -7a 7 7, 0, 0, 0, -7 -7" transform="rotate(0,306,362)"/><path d="M 299 369v 14h 14v -7a 7 7, 0, 0, 0, -7 -7" transform="rotate(90,306,376)"/><path d="M 299 425v 14h 14v -7a 7 7, 0, 0, 0, -7 -7" transform="rotate(-90,306,432)"/><rect x="299" y="439" width="14" height="14" transform="rotate(0,306,446)"/><path d="M 299 453v 14h 7a 7 7, 0, 0, 0, 0 -14" transform="rotate(90,306,460)"/><path d="M 313 19v 14h 14v -7a 7 7, 0, 0, 0, -7 -7" transform="rotate(0,320,26)"/><path d="M 313 33v 14h 7a 7 7, 0, 0, 0, 0 -14" transform="rotate(90,320,40)"/><rect x="313" y="61" width="14" height="14" transform="rotate(0,320,68)"/><rect x="313" y="89" width="14" height="14" transform="rotate(0,320,96)"/><path d="M 313 131v 14h 14v -7a 7 7, 0, 0, 0, -7 -7" transform="rotate(0,320,138)"/><rect x="313" y="145" width="14" height="14" transform="rotate(0,320,152)"/><rect x="313" y="159" width="14" height="14" transform="rotate(0,320,166)"/><rect x="313" y="173" width="14" height="14" transform="rotate(0,320,180)"/><rect x="313" y="187" width="14" height="14" transform="rotate(0,320,194)"/><path d="M 313 201v 14h 7a 7 7, 0, 0, 0, 0 -14" transform="rotate(90,320,208)"/><circle cx="320" cy="236" r="7" transform="rotate(0,320,236)"/><rect x="313" y="271" width="14" height="14" transform="rotate(0,320,278)"/><rect x="313" y="285" width="14" height="14" transform="rotate(0,320,292)"/><rect x="313" y="299" width="14" height="14" transform="rotate(0,320,306)"/><rect x="313" y="313" width="14" height="14" transform="rotate(0,320,320)"/><rect x="313" y="327" width="14" height="14" transform="rotate(0,320,334)"/><path d="M 313 341v 14h 14v -7a 7 7, 0, 0, 0, -7 -7" transform="rotate(180,320,348)"/><path d="M 313 383v 14h 7a 7 7, 0, 0, 0, 0 -14" transform="rotate(180,320,390)"/><rect x="313" y="425" width="14" height="14" transform="rotate(0,320,432)"/><path d="M 313 439v 14h 14v -7a 7 7, 0, 0, 0, -7 -7" transform="rotate(90,320,446)"/><path d="M 313 467v 14h 7a 7 7, 0, 0, 0, 0 -14" transform="rotate(180,320,474)"/><path d="M 327 47v 14h 7a 7 7, 0, 0, 0, 0 -14" transform="rotate(-90,334,54)"/><path d="M 327 61v 14h 14v -7a 7 7, 0, 0, 0, -7 -7" transform="rotate(90,334,68)"/><path d="M 327 89v 14h 14v -7a 7 7, 0, 0, 0, -7 -7" transform="rotate(0,334,96)"/><path d="M 327 103v 14h 7a 7 7, 0, 0, 0, 0 -14" transform="rotate(90,334,110)"/><path d="M 327 159v 14h 7a 7 7, 0, 0, 0, 0 -14" transform="rotate(0,334,166)"/><circle cx="334" cy="222" r="7" transform="rotate(0,334,222)"/><path d="M 327 257v 14h 7a 7 7, 0, 0, 0, 0 -14" transform="rotate(-90,334,264)"/><rect x="327" y="271" width="14" height="14" transform="rotate(0,334,278)"/><rect x="327" y="299" width="14" height="14" transform="rotate(0,334,306)"/><path d="M 327 313v 14h 14v -7a 7 7, 0, 0, 0, -7 -7" transform="rotate(90,334,320)"/><rect x="327" y="341" width="14" height="14" transform="rotate(0,334,348)"/><rect x="327" y="355" width="14" height="14" transform="rotate(0,334,362)"/><rect x="327" y="369" width="14" height="14" transform="rotate(0,334,376)"/><rect x="327" y="383" width="14" height="14" transform="rotate(0,334,390)"/><rect x="327" y="425" width="14" height="14" transform="rotate(0,334,432)"/><path d="M 327 453v 14h 7a 7 7, 0, 0, 0, 0 -14" transform="rotate(-90,334,460)"/><rect x="327" y="467" width="14" height="14" transform="rotate(0,334,474)"/><circle cx="348" cy="40" r="7" transform="rotate(0,348,40)"/><circle cx="348" cy="82" r="7" transform="rotate(0,348,82)"/><path d="M 341 117v 14h 7a 7 7, 0, 0, 0, 0 -14" transform="rotate(180,348,124)"/><circle cx="348" cy="152" r="7" transform="rotate(0,348,152)"/><path d="M 341 201v 14h 7a 7 7, 0, 0, 0, 0 -14" transform="rotate(180,348,208)"/><circle cx="348" cy="236" r="7" transform="rotate(0,348,236)"/><path d="M 341 271v 14h 7a 7 7, 0, 0, 0, 0 -14" transform="rotate(0,348,278)"/><path d="M 341 299v 14h 7a 7 7, 0, 0, 0, 0 -14" transform="rotate(0,348,306)"/><path d="M 341 341v 14h 7a 7 7, 0, 0, 0, 0 -14" transform="rotate(0,348,348)"/><rect x="341" y="383" width="14" height="14" transform="rotate(0,348,390)"/><path d="M 341 397v 14h 14v -7a 7 7, 0, 0, 0, -7 -7" transform="rotate(180,348,404)"/><rect x="341" y="425" width="14" height="14" transform="rotate(0,348,432)"/><rect x="341" y="467" width="14" height="14" transform="rotate(0,348,474)"/><circle cx="362" cy="26" r="7" transform="rotate(0,362,26)"/><path d="M 355 47v 14h 7a 7 7, 0, 0, 0, 0 -14" transform="rotate(-90,362,54)"/><path d="M 355 61v 14h 7a 7 7, 0, 0, 0, 0 -14" transform="rotate(90,362,68)"/><path d="M 355 103v 14h 7a 7 7, 0, 0, 0, 0 -14" transform="rotate(-90,362,110)"/><path d="M 355 117v 14h 14v -7a 7 7, 0, 0, 0, -7 -7" transform="rotate(90,362,124)"/><path d="M 355 201v 14h 14v -7a 7 7, 0, 0, 0, -7 -7" transform="rotate(0,362,208)"/><path d="M 355 215v 14h 14v -7a 7 7, 0, 0, 0, -7 -7" transform="rotate(180,362,222)"/><path d="M 355 243v 14h 7a 7 7, 0, 0, 0, 0 -14" transform="rotate(180,362,250)"/><path d="M 355 285v 14h 7a 7 7, 0, 0, 0, 0 -14" transform="rotate(180,362,292)"/><circle cx="362" cy="334" r="7" transform="rotate(0,362,334)"/><path d="M 355 355v 14h 14v -7a 7 7, 0, 0, 0, -7 -7" transform="rotate(-90,362,362)"/><rect x="355" y="369" width="14" height="14" transform="rotate(0,362,376)"/><rect x="355" y="383" width="14" height="14" transform="rotate(0,362,390)"/><rect x="355" y="397" width="14" height="14" transform="rotate(0,362,404)"/><rect x="355" y="411" width="14" height="14" transform="rotate(0,362,418)"/><rect x="355" y="425" width="14" height="14" transform="rotate(0,362,432)"/><path d="M 355 467v 14h 7a 7 7, 0, 0, 0, 0 -14" transform="rotate(0,362,474)"/><circle cx="376" cy="138" r="7" transform="rotate(0,376,138)"/><path d="M 369 173v 14h 14v -7a 7 7, 0, 0, 0, -7 -7" transform="rotate(-90,376,180)"/><path d="M 369 187v 14h 7a 7 7, 0, 0, 0, 0 -14" transform="rotate(90,376,194)"/><rect x="369" y="215" width="14" height="14" transform="rotate(0,376,222)"/><rect x="369" y="243" width="14" height="14" transform="rotate(0,376,250)"/><rect x="369" y="257" width="14" height="14" transform="rotate(0,376,264)"/><rect x="369" y="271" width="14" height="14" transform="rotate(0,376,278)"/><rect x="369" y="285" width="14" height="14" transform="rotate(0,376,292)"/><path d="M 369 299v 14h 14v -7a 7 7, 0, 0, 0, -7 -7" transform="rotate(180,376,306)"/><rect x="369" y="355" width="14" height="14" transform="rotate(0,376,362)"/><rect x="369" y="411" width="14" height="14" transform="rotate(0,376,418)"/><path d="M 369 425v 14h 14v -7a 7 7, 0, 0, 0, -7 -7" transform="rotate(90,376,432)"/><circle cx="376" cy="460" r="7" transform="rotate(0,376,460)"/><rect x="383" y="173" width="14" height="14" transform="rotate(0,390,180)"/><rect x="383" y="215" width="14" height="14" transform="rotate(0,390,222)"/><rect x="383" y="243" width="14" height="14" transform="rotate(0,390,250)"/><path d="M 383 271v 14h 14v -7a 7 7, 0, 0, 0, -7 -7" transform="rotate(0,390,278)"/><rect x="383" y="285" width="14" height="14" transform="rotate(0,390,292)"/><rect x="383" y="299" width="14" height="14" transform="rotate(0,390,306)"/><path d="M 383 341v 14h 14v -7a 7 7, 0, 0, 0, -7 -7" transform="rotate(-90,390,348)"/><rect x="383" y="355" width="14" height="14" transform="rotate(0,390,362)"/><circle cx="390" cy="390" r="7" transform="rotate(0,390,390)"/><rect x="383" y="411" width="14" height="14" transform="rotate(0,390,418)"/><path d="M 397 131v 14h 7a 7 7, 0, 0, 0, 0 -14" transform="rotate(-90,404,138)"/><rect x="397" y="145" width="14" height="14" transform="rotate(0,404,152)"/><rect x="397" y="159" width="14" height="14" transform="rotate(0,404,166)"/><rect x="397" y="173" width="14" height="14" transform="rotate(0,404,180)"/><rect x="397" y="187" width="14" height="14" transform="rotate(0,404,194)"/><rect x="397" y="201" width="14" height="14" transform="rotate(0,404,208)"/><rect x="397" y="215" width="14" height="14" transform="rotate(0,404,222)"/><path d="M 397 243v 14h 7a 7 7, 0, 0, 0, 0 -14" transform="rotate(0,404,250)"/><rect x="397" y="299" width="14" height="14" transform="rotate(0,404,306)"/><path d="M 397 313v 14h 14v -7a 7 7, 0, 0, 0, -7 -7" transform="rotate(180,404,320)"/><rect x="397" y="341" width="14" height="14" transform="rotate(0,404,348)"/><rect x="397" y="355" width="14" height="14" transform="rotate(0,404,362)"/><rect x="397" y="411" width="14" height="14" transform="rotate(0,404,418)"/><rect x="397" y="425" width="14" height="14" transform="rotate(0,404,432)"/><rect x="397" y="439" width="14" height="14" transform="rotate(0,404,446)"/><path d="M 397 453v 14h 14v -7a 7 7, 0, 0, 0, -7 -7" transform="rotate(180,404,460)"/><path d="M 411 145v 14h 14v -7a 7 7, 0, 0, 0, -7 -7" transform="rotate(0,418,152)"/><rect x="411" y="159" width="14" height="14" transform="rotate(0,418,166)"/><rect x="411" y="173" width="14" height="14" transform="rotate(0,418,180)"/><path d="M 411 201v 14h 14v -7a 7 7, 0, 0, 0, -7 -7" transform="rotate(0,418,208)"/><rect x="411" y="215" width="14" height="14" transform="rotate(0,418,222)"/><path d="M 411 229v 14h 7a 7 7, 0, 0, 0, 0 -14" transform="rotate(90,418,236)"/><circle cx="418" cy="264" r="7" transform="rotate(0,418,264)"/><path d="M 411 285v 14h 7a 7 7, 0, 0, 0, 0 -14" transform="rotate(-90,418,292)"/><rect x="411" y="299" width="14" height="14" transform="rotate(0,418,306)"/><rect x="411" y="313" width="14" height="14" transform="rotate(0,418,320)"/><rect x="411" y="327" width="14" height="14" transform="rotate(0,418,334)"/><rect x="411" y="341" width="14" height="14" transform="rotate(0,418,348)"/><rect x="411" y="355" width="14" height="14" transform="rotate(0,418,362)"/><rect x="411" y="369" width="14" height="14" transform="rotate(0,418,376)"/><rect x="411" y="383" width="14" height="14" transform="rotate(0,418,390)"/><rect x="411" y="397" width="14" height="14" transform="rotate(0,418,404)"/><path d="M 411 411v 14h 14v -7a 7 7, 0, 0, 0, -7 -7" transform="rotate(90,418,418)"/><path d="M 411 439v 14h 14v -7a 7 7, 0, 0, 0, -7 -7" transform="rotate(0,418,446)"/><rect x="411" y="453" width="14" height="14" transform="rotate(0,418,460)"/><path d="M 411 467v 14h 14v -7a 7 7, 0, 0, 0, -7 -7" transform="rotate(180,418,474)"/><path d="M 425 131v 14h 7a 7 7, 0, 0, 0, 0 -14" transform="rotate(180,432,138)"/><path d="M 425 173v 14h 7a 7 7, 0, 0, 0, 0 -14" transform="rotate(0,432,180)"/><rect x="425" y="299" width="14" height="14" transform="rotate(0,432,306)"/><rect x="425" y="313" width="14" height="14" transform="rotate(0,432,320)"/><rect x="425" y="327" width="14" height="14" transform="rotate(0,432,334)"/><path d="M 425 341v 14h 14v -7a 7 7, 0, 0, 0, -7 -7" transform="rotate(90,432,348)"/><rect x="425" y="397" width="14" height="14" transform="rotate(0,432,404)"/><circle cx="432" cy="432" r="7" transform="rotate(0,432,432)"/><path d="M 425 453v 14h 14v -7a 7 7, 0, 0, 0, -7 -7" transform="rotate(0,432,460)"/><path d="M 425 467v 14h 14v -7a 7 7, 0, 0, 0, -7 -7" transform="rotate(90,432,474)"/><rect x="439" y="131" width="14" height="14" transform="rotate(0,446,138)"/><circle cx="446" cy="166" r="7" transform="rotate(0,446,166)"/><path d="M 439 201v 14h 7a 7 7, 0, 0, 0, 0 -14" transform="rotate(180,446,208)"/><circle cx="446" cy="236" r="7" transform="rotate(0,446,236)"/><path d="M 439 257v 14h 14v -7a 7 7, 0, 0, 0, -7 -7" transform="rotate(-90,446,264)"/><path d="M 439 271v 14h 7a 7 7, 0, 0, 0, 0 -14" transform="rotate(90,446,278)"/><path d="M 439 299v 14h 7a 7 7, 0, 0, 0, 0 -14" transform="rotate(0,446,306)"/><rect x="439" y="327" width="14" height="14" transform="rotate(0,446,334)"/><path d="M 439 383v 14h 7a 7 7, 0, 0, 0, 0 -14" transform="rotate(-90,446,390)"/><rect x="439" y="397" width="14" height="14" transform="rotate(0,446,404)"/><circle cx="446" cy="446" r="7" transform="rotate(0,446,446)"/><path d="M 453 131v 14h 14v -7a 7 7, 0, 0, 0, -7 -7" transform="rotate(0,460,138)"/><path d="M 453 145v 14h 14v -7a 7 7, 0, 0, 0, -7 -7" transform="rotate(180,460,152)"/><path d="M 453 173v 14h 14v -7a 7 7, 0, 0, 0, -7 -7" transform="rotate(-90,460,180)"/><rect x="453" y="187" width="14" height="14" transform="rotate(0,460,194)"/><path d="M 453 201v 14h 14v -7a 7 7, 0, 0, 0, -7 -7" transform="rotate(90,460,208)"/><rect x="453" y="257" width="14" height="14" transform="rotate(0,460,264)"/><circle cx="460" cy="292" r="7" transform="rotate(0,460,292)"/><path d="M 453 327v 14h 14v -7a 7 7, 0, 0, 0, -7 -7" transform="rotate(0,460,334)"/><rect x="453" y="341" width="14" height="14" transform="rotate(0,460,348)"/><rect x="453" y="355" width="14" height="14" transform="rotate(0,460,362)"/><path d="M 453 369v 14h 7a 7 7, 0, 0, 0, 0 -14" transform="rotate(90,460,376)"/><path d="M 453 397v 14h 14v -7a 7 7, 0, 0, 0, -7 -7" transform="rotate(0,460,404)"/><path d="M 453 411v 14h 14v -7a 7 7, 0, 0, 0, -7 -7" transform="rotate(180,460,418)"/><circle cx="460" cy="474" r="7" transform="rotate(0,460,474)"/><path d="M 467 145v 14h 7a 7 7, 0, 0, 0, 0 -14" transform="rotate(0,474,152)"/><path d="M 467 173v 14h 7a 7 7, 0, 0, 0, 0 -14" transform="rotate(0,474,180)"/><path d="M 467 215v 14h 7a 7 7, 0, 0, 0, 0 -14" transform="rotate(-90,474,222)"/><path d="M 467 229v 14h 7a 7 7, 0, 0, 0, 0 -14" transform="rotate(90,474,236)"/><path d="M 467 257v 14h 14v -7a 7 7, 0, 0, 0, -7 -7" transform="rotate(0,474,264)"/><path d="M 467 271v 14h 7a 7 7, 0, 0, 0, 0 -14" transform="rotate(90,474,278)"/><circle cx="474" cy="320" r="7" transform="rotate(0,474,320)"/><path d="M 467 341v 14h 7a 7 7, 0, 0, 0, 0 -14" transform="rotate(0,474,348)"/><circle cx="474" cy="390" r="7" transform="rotate(0,474,390)"/><path d="M 467 411v 14h 7a 7 7, 0, 0, 0, 0 -14" transform="rotate(0,474,418)"/><circle cx="474" cy="446" r="7" transform="rotate(0,474,446)"/><path clip-rule="evenodd" d="M 19 54v 28a 35 35, 0, 0, 0, 35 35h 28a 35 35, 0, 0, 0, 35 -35v -28a 35 35, 0, 0, 0, -35 -35h -28a 35 35, 0, 0, 0, -35 35M 54 33h 28a 21 21, 0, 0, 1, 21 21v 28a 21 21, 0, 0, 1, -21 21h -28a 21 21, 0, 0, 1, -21 -21v -28a 21 21, 0, 0, 1, 21 -21" transform="rotate(0,68,68)"/><rect x="47" y="47" width="42" height="42" transform="rotate(0,68,68)"/><path clip-rule="evenodd" d="M 383 54v 28a 35 35, 0, 0, 0, 35 35h 28a 35 35, 0, 0, 0, 35 -35v -28a 35 35, 0, 0, 0, -35 -35h -28a 35 35, 0, 0, 0, -35 35M 418 33h 28a 21 21, 0, 0, 1, 21 21v 28a 21 21, 0, 0, 1, -21 21h -28a 21 21, 0, 0, 1, -21 -21v -28a 21 21, 0, 0, 1, 21 -21" transform="rotate(90,432,68)"/><rect x="411" y="47" width="42" height="42" transform="rotate(90,432,68)"/><path clip-rule="evenodd" d="M 19 418v 28a 35 35, 0, 0, 0, 35 35h 28a 35 35, 0, 0, 0, 35 -35v -28a 35 35, 0, 0, 0, -35 -35h -28a 35 35, 0, 0, 0, -35 35M 54 397h 28a 21 21, 0, 0, 1, 21 21v 28a 21 21, 0, 0, 1, -21 21h -28a 21 21, 0, 0, 1, -21 -21v -28a 21 21, 0, 0, 1, 21 -21" transform="rotate(-90,68,432)"/><rect x="47" y="411" width="42" height="42" transform="rotate(-90,68,432)"/></clipPath></defs><rect x="0" y="0" height="500" width="500" clip-path="url('#clip-path-background-color')" fill="#fff"/><rect x="0" y="0" height="500" width="500" clip-path="url('#clip-path-dot-color')" fill="#000000"/></svg>